<?xml version="1.0" standalone="no"?>
<!DOCTYPE svg PUBLIC "-//W3C//DTD SVG 20010904//EN"
 "http://www.w3.org/TR/2001/REC-SVG-20010904/DTD/svg10.dtd">
<svg  version="1.0" xmlns="http://www.w3.org/2000/svg"
 width="1200.000000pt" height="1200.000000pt" viewBox="0 0 1200.000000 1200.000000"
 preserveAspectRatio="xMidYMid meet">

<g transform="translate(0.000000,1200.000000) scale(0.100000,-0.100000)"
fill="#000000" stroke="none">
<path d="M5710 11659 c-1374 -80 -2643 -639 -3619 -1594 -749 -733 -1262
-1617 -1520 -2618 -250 -966 -235 -2008 40 -2962 368 -1273 1159 -2361 2259
-3107 994 -674 2206 -1017 3385 -959 1070 52 2026 364 2892 942 316 212 557
411 854 708 588 588 1004 1235 1299 2021 250 665 377 1473 341 2184 -57 1162
-421 2196 -1094 3109 -305 414 -752 862 -1177 1179 -1040 775 -2367 1173
-3660 1097z m670 -29 c1060 -73 2045 -424 2900 -1036 783 -561 1427 -1338
1824 -2201 265 -577 421 -1150 493 -1813 25 -234 25 -844 0 -1080 -58 -543
-178 -1039 -363 -1508 -458 -1159 -1268 -2114 -2340 -2759 -1738 -1047 -3943
-1058 -5699 -30 -937 549 -1712 1377 -2189 2340 -411 830 -603 1693 -583 2617
8 368 39 649 108 995 389 1947 1816 3562 3709 4195 445 150 933 247 1390 279
178 12 580 13 750 1z"/>
<path d="M1902 8475 c-29 -21 -52 -66 -52 -103 0 -41 48 -110 82 -117 32 -8
32 -6 49 -168 19 -190 17 -449 -4 -527 -51 -189 -157 -215 -399 -97 -62 30
-158 86 -213 124 -97 68 -100 71 -101 109 -1 61 -3 69 -24 92 -30 32 -82 30
-109 -4 -25 -31 -27 -64 -6 -104 17 -33 44 -44 89 -36 32 6 35 3 132 -121 149
-192 183 -240 226 -330 22 -46 41 -83 44 -83 2 0 39 17 82 39 135 68 381 140
547 160 44 5 169 9 277 8 l197 -2 5 29 c3 16 6 45 6 65 0 53 23 143 87 353 57
185 58 188 86 188 32 0 77 40 77 68 0 37 -21 79 -46 91 -81 37 -139 -35 -96
-118 l21 -39 -49 -72 c-197 -285 -366 -423 -469 -380 -98 40 -205 253 -310
614 -38 130 -40 140 -23 152 9 7 20 14 23 14 12 0 29 52 29 86 0 65 -40 113
-98 121 -24 3 -45 -1 -60 -12z"/>
<path d="M10183 8290 c-77 -47 -62 -175 38 -315 62 -87 46 -84 153 -32 107 51
166 105 185 166 31 104 -83 186 -169 123 l-30 -22 -13 33 c-27 64 -101 86
-164 47z"/>
<path d="M9754 7995 c-15 -23 -19 -24 -33 -11 -47 42 -111 13 -111 -50 0 -40
56 -108 114 -139 l35 -19 27 24 c74 69 106 167 66 203 -29 26 -78 22 -98 -8z"/>
<path d="M10244 7813 c-58 -126 -231 -316 -298 -329 -30 -5 -42 -2 -70 20 -37
28 -80 107 -91 169 -4 20 -10 37 -14 37 -3 0 -14 -26 -24 -58 -33 -107 -104
-192 -160 -192 -36 0 -78 32 -106 82 l-29 51 -6 -44 c-3 -24 -8 -101 -11 -171
l-6 -126 113 5 c146 7 333 -16 514 -62 241 -63 395 -129 620 -266 l30 -18 39
87 c21 48 51 115 67 149 15 34 28 64 28 67 0 3 -25 -8 -56 -25 -61 -32 -81
-35 -117 -18 -57 26 -81 134 -54 247 8 34 12 62 10 62 -3 0 -30 -22 -61 -50
-92 -82 -165 -98 -212 -48 -45 48 -95 282 -88 408 1 33 2 60 1 60 -1 0 -10
-17 -19 -37z"/>
<path d="M10672 7773 c-37 -15 -54 -117 -32 -192 12 -44 24 -51 79 -45 65 7
128 32 146 57 35 50 -2 112 -62 105 -30 -4 -33 -2 -33 23 0 43 -52 71 -98 52z"/>
<path d="M9383 7749 c-14 -5 -23 -17 -23 -30 0 -27 64 -92 87 -87 25 5 64 68
61 98 -3 28 -39 40 -64 20 -9 -9 -18 -9 -26 -2 -8 6 -22 6 -35 1z"/>
<path d="M5683 7694 c-54 -27 -78 -77 -77 -159 0 -39 7 -86 16 -105 12 -28 78
-121 154 -216 7 -8 40 -22 75 -31 35 -8 93 -28 128 -44 35 -16 67 -26 72 -23
14 8 10 141 -6 217 -49 231 -241 422 -362 361z"/>
<path d="M5543 7683 c-143 -81 -208 -286 -151 -475 13 -44 11 -43 69 -23 27
10 85 17 151 18 60 1 108 3 108 5 0 2 -21 29 -47 60 -25 31 -59 85 -76 120
-26 55 -29 71 -25 135 3 47 12 87 26 116 12 25 22 48 22 53 0 14 -44 9 -77 -9z"/>
<path d="M4843 7646 c-66 -30 -80 -100 -33 -164 37 -50 87 -71 201 -82 57 -6
121 -16 141 -22 44 -13 108 -63 108 -85 0 -11 -10 -6 -32 16 -38 37 -72 47
-197 56 -148 10 -230 57 -261 149 -15 45 -27 46 -46 1 -31 -75 -2 -176 73
-257 74 -78 225 -135 334 -125 86 8 130 44 133 112 1 13 8 20 21 20 29 0 57
60 50 105 -17 93 -107 193 -224 248 -62 30 -87 36 -155 39 -56 2 -91 -1 -113
-11z"/>
<path d="M10856 7377 c-14 -10 -18 -26 -18 -61 1 -26 4 -51 7 -56 12 -20 83
-11 111 13 23 20 25 26 15 45 -6 12 -21 22 -31 22 -11 0 -20 4 -20 9 0 11 -28
41 -39 41 -4 0 -15 -6 -25 -13z"/>
<path d="M4490 7354 c-42 -18 -86 -59 -106 -96 -24 -47 -17 -79 26 -122 34
-34 43 -38 73 -32 53 10 124 60 147 105 23 46 24 67 6 100 l-13 24 -12 -36
c-14 -42 -42 -62 -108 -78 -26 -6 -57 -20 -69 -30 -30 -28 -41 -23 -14 6 13
14 48 32 76 41 92 26 132 76 93 115 -23 23 -51 24 -99 3z"/>
<path d="M2340 7244 c-203 -24 -328 -52 -472 -105 -110 -40 -228 -98 -228
-112 0 -18 24 -77 31 -77 3 0 44 18 91 40 244 114 519 167 808 156 l155 -6 2
40 c2 31 -2 42 -18 50 -20 11 -304 22 -369 14z"/>
<path d="M5482 7145 c-155 -34 -262 -127 -262 -227 1 -49 32 -110 76 -146 115
-95 235 -105 498 -40 190 46 322 19 439 -91 l38 -36 19 23 c33 40 40 85 23
144 -42 143 -184 271 -382 342 -125 45 -321 59 -449 31z"/>
<path d="M9320 7044 c-285 -36 -515 -120 -622 -228 -101 -102 -187 -303 -146
-344 20 -20 103 -14 174 13 37 14 69 24 71 22 2 -2 -18 -48 -43 -103 -74 -157
-306 -871 -386 -1189 -51 -206 -55 -293 -16 -352 41 -62 101 -87 193 -81 l73
5 -48 -47 c-59 -57 -81 -99 -83 -156 -2 -36 3 -48 31 -77 70 -72 194 -117 376
-138 123 -14 227 -3 374 40 404 117 881 430 1044 687 91 141 129 290 108 420
-36 225 -200 349 -545 409 l-40 7 51 13 c80 21 157 59 254 126 157 107 261
246 290 386 20 93 9 227 -24 295 -73 153 -278 263 -551 297 -119 14 -404 12
-535 -5z m336 -359 c149 -44 186 -227 81 -405 -65 -110 -249 -268 -365 -313
-50 -20 -122 -23 -122 -5 0 7 46 171 103 365 94 324 104 353 127 362 38 14
121 13 176 -4z m-346 -933 c19 -6 77 -20 129 -31 119 -26 185 -57 239 -112 65
-66 86 -118 90 -222 3 -74 0 -102 -22 -170 -35 -112 -95 -215 -171 -296 -149
-158 -311 -186 -611 -107 -71 19 -143 40 -158 46 l-28 10 50 56 c102 114 211
350 316 687 31 97 56 184 56 193 0 12 9 9 38 -14 20 -16 53 -34 72 -40z"/>
<path d="M2395 6960 c-234 -26 -394 -68 -541 -140 -80 -39 -113 -62 -156 -109
-63 -67 -135 -203 -144 -273 -6 -42 -4 -47 19 -63 32 -21 84 -14 172 21 32 13
60 22 62 21 1 -2 -19 -52 -46 -113 -43 -96 -126 -336 -260 -754 -70 -220 -143
-494 -161 -607 -19 -117 9 -190 90 -231 39 -20 56 -23 122 -19 l78 4 -55 -58
c-62 -65 -75 -92 -75 -153 0 -34 6 -49 33 -76 100 -103 396 -164 612 -127 331
58 815 324 1068 586 152 158 220 308 220 486 0 112 -16 167 -72 249 -67 97
-212 175 -391 211 -120 24 -122 25 -55 44 163 46 363 192 455 332 58 90 75
155 75 294 0 112 -2 124 -28 175 -51 100 -170 194 -304 241 -123 43 -239 60
-443 64 -107 2 -231 0 -275 -5z m263 -365 c148 -44 192 -197 107 -371 -59
-122 -222 -276 -356 -339 -54 -25 -149 -35 -149 -15 0 19 203 705 212 717 20
25 114 29 186 8z m-396 -905 c32 -22 76 -37 177 -60 78 -17 151 -40 176 -54
59 -35 130 -117 149 -173 43 -125 2 -328 -96 -471 -184 -270 -365 -311 -803
-180 -38 11 -72 23 -74 25 -3 2 11 20 31 41 75 79 135 180 203 337 44 103 138
378 170 498 10 37 19 67 21 67 2 0 23 -13 46 -30z"/>
<path d="M5160 6821 c-15 -29 -12 -120 6 -181 48 -161 241 -316 449 -361 93
-19 287 -18 365 4 186 51 291 163 260 276 -12 44 -72 105 -128 128 -54 22
-163 18 -283 -11 -161 -39 -236 -49 -314 -43 -127 11 -204 53 -286 156 -45 56
-53 60 -69 32z"/>
<path d="M4740 6621 c-80 -22 -136 -50 -174 -87 -127 -126 -117 -295 27 -451
108 -117 391 -242 677 -299 47 -9 87 -18 88 -20 2 -1 -10 -23 -28 -48 -17 -26
-36 -60 -42 -76 -5 -17 -14 -30 -19 -30 -34 0 -233 56 -329 93 -174 66 -239
103 -348 195 -29 25 -56 42 -59 38 -8 -8 10 -102 40 -206 18 -62 30 -83 68
-121 79 -78 269 -162 491 -218 l110 -28 24 -74 c13 -41 30 -87 40 -102 9 -16
14 -30 12 -32 -2 -3 -44 6 -94 19 -155 42 -289 98 -401 168 -34 22 -67 37 -72
33 -13 -8 1 -45 38 -98 125 -182 375 -322 678 -379 99 -19 153 -22 338 -22
245 -1 357 16 517 74 213 78 409 229 510 394 49 78 49 102 0 68 -31 -22 -182
-112 -188 -112 -2 0 -27 -11 -56 -24 -100 -47 -183 -77 -277 -102 -52 -13 -96
-23 -98 -20 -2 2 7 24 21 50 14 26 30 71 37 100 l12 53 55 13 c228 51 492 180
599 293 46 49 52 61 72 144 26 111 36 183 26 183 -4 0 -34 -25 -67 -55 -117
-109 -282 -199 -478 -263 -75 -25 -217 -62 -235 -62 -1 0 -5 10 -9 23 -3 12
-21 46 -41 75 -41 63 -43 72 -12 72 12 0 81 14 152 30 402 93 651 244 726 439
49 131 -3 255 -135 323 -71 36 -196 62 -196 40 0 -4 22 -24 50 -45 76 -57 96
-111 76 -210 -5 -28 -24 -55 -69 -101 -111 -113 -303 -192 -596 -243 -148 -26
-172 -27 -476 -28 -294 0 -330 2 -440 23 -213 41 -355 100 -450 185 -91 81
-130 165 -119 252 5 43 13 57 58 100 28 28 65 60 81 72 l30 22 -40 0 c-22 -1
-69 -9 -105 -18z m1101 -1101 l124 -160 3 131 c3 146 -1 159 -54 159 -24 0
-34 5 -34 15 0 13 16 15 108 13 108 -3 141 -17 67 -29 -20 -3 -41 -12 -46 -20
-5 -8 -9 -121 -9 -252 l0 -238 -52 3 -53 3 -153 195 c-84 107 -159 204 -167
215 -12 18 -14 -2 -14 -163 -1 -108 3 -191 9 -203 7 -11 26 -21 50 -25 75 -12
40 -24 -70 -24 -114 0 -141 11 -68 26 54 11 55 15 57 252 1 182 1 183 -24 207
-15 16 -36 25 -55 25 -20 0 -30 5 -30 15 0 13 23 15 143 15 l143 0 125 -160z"/>
<path d="M6432 6416 c-24 -91 -145 -169 -331 -213 -199 -47 -557 -43 -741 8
-141 39 -230 116 -230 199 0 40 -14 38 -35 -6 -15 -31 -15 -43 -6 -76 14 -45
58 -98 106 -128 49 -30 192 -77 282 -91 115 -19 455 -16 575 4 188 32 336 98
388 174 28 42 39 129 18 156 -12 17 -15 14 -26 -27z"/>
<path d="M7291 6272 c-61 -23 -144 -102 -175 -164 -28 -56 -35 -118 -13 -118
7 0 39 27 72 61 71 72 119 99 175 99 84 0 127 -49 118 -134 -8 -69 -45 -134
-126 -218 -86 -90 -155 -138 -288 -204 -108 -53 -135 -85 -115 -137 33 -85
178 -63 346 54 91 62 218 193 267 274 83 137 106 295 57 390 -38 75 -99 109
-198 112 -53 2 -90 -3 -120 -15z"/>
<path d="M3855 5453 c-60 -31 -115 -97 -115 -138 0 -24 68 -85 96 -85 90 0
180 107 152 180 l-10 25 -10 -25 c-15 -40 -38 -59 -91 -75 -28 -8 -61 -22 -74
-30 -13 -9 -23 -11 -23 -6 0 15 45 39 94 52 45 11 86 47 86 75 0 16 -39 44
-60 44 -8 -1 -28 -8 -45 -17z"/>
<path d="M4180 5357 c-52 -17 -137 -104 -145 -149 -10 -52 1 -88 25 -88 11 0
20 -7 20 -15 0 -8 11 -22 25 -31 59 -38 190 21 233 106 25 50 28 97 9 125 -13
16 -16 14 -36 -27 -23 -48 -52 -66 -141 -89 -25 -6 -55 -20 -67 -32 -13 -11
-23 -16 -23 -9 0 20 50 50 118 71 75 23 99 42 108 88 11 54 -45 76 -126 50z"/>
<path d="M7250 5336 c0 -2 22 -9 49 -15 132 -28 253 -112 280 -194 10 -31 9
-41 -7 -74 -24 -45 -46 -66 -127 -120 -293 -196 -794 -351 -1370 -424 -61 -8
-213 -13 -390 -13 -301 0 -416 10 -640 54 -236 47 -533 149 -702 241 -87 47
-96 45 -15 -4 199 -120 484 -235 732 -296 313 -77 458 -94 845 -98 334 -4 362
-3 630 38 462 70 893 235 1089 417 50 46 116 136 116 158 0 8 5 14 10 14 6 0
10 22 10 48 0 117 -116 199 -350 246 -87 18 -160 28 -160 22z"/>
<path d="M4439 5174 c-20 -14 -45 -41 -55 -60 l-19 -34 37 -36 c30 -31 40 -36
64 -30 38 10 104 78 104 107 0 22 -20 65 -20 44 0 -5 -7 1 -16 13 -20 28 -50
27 -95 -4z m105 -38 c-6 -16 -63 -46 -87 -46 -9 0 -19 -4 -22 -10 -3 -5 -11
-10 -17 -10 -26 0 16 29 58 39 25 6 47 18 50 26 4 8 10 15 15 15 4 0 6 -6 3
-14z"/>
<path d="M3920 5109 c-40 -23 -80 -75 -80 -104 0 -22 57 -75 81 -75 56 0 129
69 129 121 0 39 -11 42 -31 10 -13 -21 -34 -34 -78 -48 -36 -12 -57 -15 -51
-8 5 6 29 17 52 24 69 21 97 58 66 89 -17 17 -48 14 -88 -9z"/>
<path d="M4330 3759 c-146 -22 -317 -98 -416 -183 -177 -153 -187 -412 -22
-561 68 -61 210 -129 338 -162 58 -14 106 -27 108 -29 2 -1 -19 -44 -47 -95
-72 -136 -96 -227 -95 -369 0 -93 5 -127 23 -179 103 -295 407 -432 756 -340
247 64 495 260 604 478 83 163 81 386 -2 471 -47 48 -85 63 -168 68 -149 9
-272 -49 -420 -197 -107 -108 -159 -194 -179 -298 -26 -132 22 -195 127 -167
25 7 53 59 53 98 0 59 -72 86 -124 45 l-26 -20 0 44 c0 67 49 154 142 252 143
151 302 235 423 222 129 -13 205 -99 205 -231 -1 -267 -329 -648 -638 -739
-249 -75 -490 -17 -590 141 -50 77 -65 150 -59 272 8 158 57 298 162 461 l43
66 123 6 c329 15 779 156 1016 319 l42 29 26 -39 c34 -52 61 -134 70 -210 9
-79 31 -80 29 -1 -2 63 -30 150 -73 218 l-29 49 40 38 c46 45 78 102 78 139 0
98 -116 143 -330 131 l-105 -7 -50 32 c-155 99 -378 191 -557 230 -109 24
-375 34 -478 18z m532 -88 c53 -12 138 -35 190 -52 105 -35 318 -133 318 -147
0 -5 -25 -14 -55 -21 -102 -23 -269 -83 -380 -136 -205 -99 -391 -240 -510
-389 -38 -48 -67 -75 -81 -75 -44 -2 -194 43 -281 84 -109 51 -173 107 -210
184 -38 77 -40 192 -4 264 64 131 254 254 466 301 103 23 414 15 547 -13z
m898 -227 c40 -16 70 -54 70 -89 0 -27 -37 -88 -74 -124 -20 -19 -37 -33 -39
-30 -36 50 -128 146 -185 190 l-72 58 32 5 c18 3 44 8 58 10 46 8 168 -3 210
-20z m-292 -31 c91 -67 236 -218 226 -235 -11 -18 -183 -112 -278 -152 -240
-103 -526 -174 -775 -192 -110 -8 -109 -15 -8 104 167 195 416 370 662 463 55
21 108 39 118 39 10 0 35 -12 55 -27z"/>
<path d="M7398 3277 c-148 -83 -389 -348 -540 -594 l-51 -83 -73 0 c-43 0 -74
-4 -74 -10 0 -6 28 -10 65 -10 63 0 75 -5 56 -25 -5 -6 -39 -66 -76 -135 -141
-260 -395 -550 -482 -550 -36 0 -56 28 -50 72 8 58 50 141 205 400 78 130 142
239 142 241 0 2 -36 4 -79 4 l-79 0 -26 -46 -26 -46 0 33 c0 48 -30 72 -90 72
-173 0 -484 -205 -570 -376 -108 -212 22 -445 199 -355 42 22 117 97 186 186
64 83 64 83 48 23 -39 -149 59 -266 180 -214 60 25 132 93 255 241 31 38 30
35 -14 -50 -82 -156 -234 -416 -282 -483 -166 -233 -397 -365 -575 -331 -62
13 -83 6 -53 -17 12 -9 44 -14 84 -14 175 0 362 96 567 291 212 204 342 397
604 902 l92 177 120 0 c73 0 119 4 119 10 0 6 -43 10 -107 10 -125 1 -127 -8
23 97 182 127 356 298 425 420 35 61 50 153 29 178 -22 26 -89 18 -152 -18z
m133 13 c84 -45 -145 -335 -460 -583 -47 -37 -87 -65 -89 -62 -7 6 140 262
212 369 74 111 193 237 249 265 48 24 60 25 88 11z m-1259 -727 c10 -9 18 -28
18 -42 -1 -69 -107 -249 -257 -436 -155 -194 -246 -252 -304 -194 -19 19 -21
30 -17 88 6 78 54 180 140 296 73 98 234 257 288 282 54 26 107 29 132 6z"/>
<path d="M7420 2581 c-130 -42 -318 -157 -393 -241 -23 -26 -56 -73 -72 -106
-26 -52 -30 -69 -30 -144 0 -74 3 -91 27 -131 37 -62 92 -99 161 -106 106 -11
214 44 350 176 96 93 230 256 225 273 -3 7 -27 -16 -54 -52 -195 -254 -351
-374 -485 -375 -136 0 -164 100 -76 274 l33 64 149 37 c247 62 345 112 385
195 27 55 20 94 -22 130 -24 20 -40 25 -86 24 -31 0 -82 -8 -112 -18z m141 -1
c11 -6 19 -21 19 -36 0 -79 -123 -184 -301 -257 -102 -42 -159 -56 -143 -36
140 184 256 291 354 325 44 16 47 16 71 4z"/>
</g>
</svg>
